<svg width="24" height="21" viewBox="0 0 24 21" fill="none" xmlns="http://www.w3.org/2000/svg">
<path d="M10.5049 1.87293C6.56823 4.3936 4.5999 7.42926 4.5999 10.9799C4.5999 12.0846 4.79223 12.6369 5.1769 12.6369L5.5729 12.5299C5.88423 12.4099 6.13623 12.3499 6.3289 12.3499C7.4569 12.3499 8.39856 12.7599 9.1539 13.5799C9.90923 14.3999 10.2872 15.4119 10.2879 16.6159C10.2872 17.7733 9.87889 18.7556 9.06289 19.5629C8.24689 20.3696 7.2629 20.7729 6.1109 20.7729C4.5029 20.7729 3.17623 20.1119 2.1309 18.7899C1.08823 17.4699 0.566895 15.8109 0.566895 13.8129C0.566229 11.5529 1.00956 9.48526 1.8969 7.60993C2.78623 5.73526 4.14223 4.04026 5.9649 2.52493C7.7889 1.01093 8.9529 0.253596 9.45689 0.25293C9.7929 0.25293 10.0689 0.41493 10.2849 0.73893C10.5009 1.06226 10.6089 1.34393 10.6089 1.58393L10.5019 1.87193L10.5049 1.87293ZM23.4649 1.87293C19.5282 4.39293 17.5602 7.42893 17.5609 10.9809C17.5609 12.0856 17.7532 12.6379 18.1379 12.6379L18.5339 12.5309C18.8452 12.4109 19.0972 12.3509 19.2899 12.3509C20.3939 12.3509 21.3296 12.7609 22.0969 13.5809C22.8656 14.3996 23.2496 15.4116 23.2489 16.6169C23.2482 17.7743 22.8399 18.7566 22.0239 19.5639C21.2079 20.3706 20.2239 20.7739 19.0719 20.7739C17.4639 20.7739 16.1372 20.1129 15.0919 18.7909C14.0492 17.4709 13.5279 15.8119 13.5279 13.8139C13.5266 11.5299 13.9766 9.4446 14.8779 7.55793C15.7779 5.6706 17.1336 3.9816 18.9449 2.49093C20.7596 0.999597 21.9179 0.25393 22.4199 0.25393C22.7566 0.25393 23.0332 0.41593 23.2499 0.73993C23.4652 1.06393 23.5729 1.34593 23.5729 1.58593L23.4649 1.87293Z" fill="#3DADB9"/>
</svg>
