<svg width="78" height="77" viewBox="0 0 78 77" fill="none" xmlns="http://www.w3.org/2000/svg">
<path d="M74.1999 5.88C72.5799 5.88 71.2599 4.56 71.2599 2.94C71.2599 1.32 72.5799 0 74.1999 0C75.8199 0 77.1399 1.32 77.1399 2.94C77.1399 4.57 75.8199 5.88 74.1999 5.88ZM77.1399 20.53C77.1399 18.91 75.8199 17.59 74.1999 17.59C72.5799 17.59 71.2599 18.91 71.2599 20.53C71.2599 22.15 72.5799 23.47 74.1999 23.47C75.8199 23.47 77.1399 22.16 77.1399 20.53ZM77.1399 38.12C77.1399 36.5 75.8199 35.18 74.1999 35.18C72.5799 35.18 71.2599 36.5 71.2599 38.12C71.2599 39.74 72.5799 41.06 74.1999 41.06C75.8199 41.07 77.1399 39.75 77.1399 38.12ZM77.1399 55.72C77.1399 54.1 75.8199 52.78 74.1999 52.78C72.5799 52.78 71.2599 54.1 71.2599 55.72C71.2599 57.34 72.5799 58.66 74.1999 58.66C75.8199 58.66 77.1399 57.34 77.1399 55.72ZM77.1399 73.31C77.1399 71.69 75.8199 70.37 74.1999 70.37C72.5799 70.37 71.2599 71.69 71.2599 73.31C71.2599 74.93 72.5799 76.25 74.1999 76.25C75.8199 76.25 77.1399 74.93 77.1399 73.31ZM59.5499 2.94C59.5499 1.32 58.2299 0 56.6099 0C54.9899 0 53.6699 1.32 53.6699 2.94C53.6699 4.56 54.9899 5.88 56.6099 5.88C58.2299 5.88 59.5499 4.57 59.5499 2.94ZM59.5499 20.53C59.5499 18.91 58.2299 17.59 56.6099 17.59C54.9899 17.59 53.6699 18.91 53.6699 20.53C53.6699 22.15 54.9899 23.47 56.6099 23.47C58.2299 23.47 59.5499 22.16 59.5499 20.53ZM59.5499 38.12C59.5499 36.5 58.2299 35.18 56.6099 35.18C54.9899 35.18 53.6699 36.5 53.6699 38.12C53.6699 39.74 54.9899 41.06 56.6099 41.06C58.2299 41.07 59.5499 39.75 59.5499 38.12ZM59.5499 55.72C59.5499 54.1 58.2299 52.78 56.6099 52.78C54.9899 52.78 53.6699 54.1 53.6699 55.72C53.6699 57.34 54.9899 58.66 56.6099 58.66C58.2299 58.66 59.5499 57.34 59.5499 55.72ZM59.5499 73.31C59.5499 71.69 58.2299 70.37 56.6099 70.37C54.9899 70.37 53.6699 71.69 53.6699 73.31C53.6699 74.93 54.9899 76.25 56.6099 76.25C58.2299 76.25 59.5499 74.93 59.5499 73.31ZM41.9499 2.94C41.9499 1.32 40.6299 0 39.0099 0C37.3899 0 36.0699 1.32 36.0699 2.94C36.0699 4.56 37.3899 5.88 39.0099 5.88C40.6399 5.88 41.9499 4.57 41.9499 2.94ZM41.9499 20.53C41.9499 18.91 40.6299 17.59 39.0099 17.59C37.3899 17.59 36.0699 18.91 36.0699 20.53C36.0699 22.15 37.3899 23.47 39.0099 23.47C40.6399 23.47 41.9499 22.16 41.9499 20.53ZM41.9499 38.12C41.9499 36.5 40.6299 35.18 39.0099 35.18C37.3899 35.18 36.0699 36.5 36.0699 38.12C36.0699 39.74 37.3899 41.06 39.0099 41.06C40.6399 41.07 41.9499 39.75 41.9499 38.12ZM41.9499 55.72C41.9499 54.1 40.6299 52.78 39.0099 52.78C37.3899 52.78 36.0699 54.1 36.0699 55.72C36.0699 57.34 37.3899 58.66 39.0099 58.66C40.6399 58.66 41.9499 57.34 41.9499 55.72ZM41.9499 73.31C41.9499 71.69 40.6299 70.37 39.0099 70.37C37.3899 70.37 36.0699 71.69 36.0699 73.31C36.0699 74.93 37.3899 76.25 39.0099 76.25C40.6399 76.25 41.9499 74.93 41.9499 73.31ZM24.3599 2.94C24.3599 1.32 23.0399 0 21.4199 0C19.7999 0 18.4799 1.32 18.4799 2.94C18.4799 4.56 19.7999 5.88 21.4199 5.88C23.0499 5.88 24.3599 4.57 24.3599 2.94ZM24.3599 20.53C24.3599 18.91 23.0399 17.59 21.4199 17.59C19.7999 17.59 18.4799 18.91 18.4799 20.53C18.4799 22.15 19.7999 23.47 21.4199 23.47C23.0499 23.47 24.3599 22.16 24.3599 20.53ZM24.3599 38.12C24.3599 36.5 23.0399 35.18 21.4199 35.18C19.7999 35.18 18.4799 36.5 18.4799 38.12C18.4799 39.74 19.7999 41.06 21.4199 41.06C23.0499 41.07 24.3599 39.75 24.3599 38.12ZM24.3599 55.72C24.3599 54.1 23.0399 52.78 21.4199 52.78C19.7999 52.78 18.4799 54.1 18.4799 55.72C18.4799 57.34 19.7999 58.66 21.4199 58.66C23.0499 58.66 24.3599 57.34 24.3599 55.72ZM24.3599 73.31C24.3599 71.69 23.0399 70.37 21.4199 70.37C19.7999 70.37 18.4799 71.69 18.4799 73.31C18.4799 74.93 19.7999 76.25 21.4199 76.25C23.0499 76.25 24.3599 74.93 24.3599 73.31ZM6.7699 2.94C6.7699 1.32 5.44989 0 3.8299 0C2.2099 0 0.889893 1.32 0.889893 2.94C0.889893 4.56 2.2099 5.88 3.8299 5.88C5.44989 5.88 6.7699 4.57 6.7699 2.94ZM6.7699 20.53C6.7699 18.91 5.44989 17.59 3.8299 17.59C2.2099 17.59 0.889893 18.91 0.889893 20.53C0.889893 22.15 2.2099 23.47 3.8299 23.47C5.44989 23.47 6.7699 22.16 6.7699 20.53ZM6.7699 38.12C6.7699 36.5 5.44989 35.18 3.8299 35.18C2.2099 35.18 0.889893 36.5 0.889893 38.12C0.889893 39.74 2.2099 41.06 3.8299 41.06C5.44989 41.06 6.7699 39.75 6.7699 38.12ZM6.7699 55.72C6.7699 54.1 5.44989 52.78 3.8299 52.78C2.2099 52.78 0.889893 54.1 0.889893 55.72C0.889893 57.34 2.2099 58.66 3.8299 58.66C5.44989 58.66 6.7699 57.34 6.7699 55.72ZM6.7699 73.31C6.7699 71.69 5.44989 70.37 3.8299 70.37C2.2099 70.37 0.889893 71.69 0.889893 73.31C0.889893 74.93 2.2099 76.25 3.8299 76.25C5.44989 76.25 6.7699 74.93 6.7699 73.31Z" fill="#0A6378"/>
</svg>
