<svg width="267" height="274" viewBox="0 0 267 274" fill="none" xmlns="http://www.w3.org/2000/svg">
<path d="M110.24 273.29C68.6 273.29 29.45 257.07 0 227.63L1.41 226.22C61.42 286.23 159.05 286.23 219.06 226.22C248.13 197.15 264.14 158.5 264.14 117.4C264.14 76.2999 248.13 37.6399 219.06 8.57993L220.47 7.16992C249.92 36.6199 266.13 75.7699 266.13 117.41C266.13 159.05 249.91 198.2 220.47 227.65C191.03 257.08 151.88 273.29 110.24 273.29Z" fill="#3DADB9"/>
<path d="M110.24 262.5C73.06 262.5 35.89 248.35 7.59 220.05L9 218.64C64.82 274.46 155.65 274.46 211.48 218.64C267.3 162.82 267.3 71.98 211.48 16.16L212.89 14.75C269.49 71.35 269.49 163.45 212.89 220.06C184.59 248.35 147.41 262.5 110.24 262.5Z" fill="#3DADB9"/>
<path d="M110.24 251.84C74.33 251.84 40.57 237.85 15.17 212.46L16.58 211.05C41.6 236.07 74.86 249.84 110.23 249.84C145.61 249.84 178.87 236.06 203.88 211.05C228.9 186.03 242.67 152.77 242.67 117.4C242.67 82.0199 228.89 48.7598 203.88 23.7498L205.29 22.3398C230.68 47.7298 244.67 81.4998 244.67 117.41C244.67 153.32 230.68 187.08 205.29 212.48C179.91 237.85 146.15 251.84 110.24 251.84Z" fill="#3DADB9"/>
<path d="M110.24 241.05C78.56 241.05 46.88 228.99 22.76 204.87L24.17 203.46C71.63 250.92 148.85 250.92 196.31 203.46C243.77 156 243.77 78.7801 196.31 31.3201L197.72 29.9102C245.96 78.1502 245.96 156.64 197.72 204.87C173.6 228.99 141.92 241.05 110.24 241.05Z" fill="#3DADB9"/>
<path d="M110.24 230.33C81.31 230.33 52.37 219.32 30.34 197.29L31.75 195.88C75.03 239.16 145.44 239.16 188.71 195.88C231.99 152.6 231.99 82.1898 188.71 38.9198L190.12 37.5098C234.17 81.5598 234.17 153.25 190.12 197.3C168.11 219.32 139.17 230.33 110.24 230.33Z" fill="#3DADB9"/>
<path d="M110.24 219.61C84.05 219.61 57.86 209.64 37.93 189.71L39.34 188.3C78.43 227.39 142.04 227.39 181.13 188.3C200.07 169.36 210.5 144.18 210.5 117.4C210.5 90.6199 200.07 65.4398 181.13 46.4998L182.54 45.0898C201.86 64.3998 212.49 90.0899 212.49 117.4C212.49 144.71 201.85 170.4 182.54 189.71C162.61 209.64 136.43 219.61 110.24 219.61Z" fill="#3DADB9"/>
<path d="M110.24 208.89C86.8 208.89 63.36 199.97 45.51 182.12L46.92 180.71C81.83 215.62 138.63 215.62 173.54 180.71C208.45 145.8 208.45 88.9997 173.54 54.0897L174.95 52.6797C210.64 88.3697 210.64 146.44 174.95 182.13C157.12 199.96 133.68 208.89 110.24 208.89Z" fill="#3DADB9"/>
<path d="M172.44 0L166.67 5.75999V0H172.44Z" fill="#3DADB9"/>
<path d="M183.12 0L166.67 16.45V10.69L177.36 0H183.12Z" fill="#3DADB9"/>
<path d="M215.1 0L166.67 48.42V42.75L209.42 0H215.1Z" fill="#3DADB9"/>
<path d="M204.5 0L166.67 37.82V32.06L198.74 0H204.5Z" fill="#3DADB9"/>
<path d="M193.81 0L166.67 27.14V21.37L188.05 0H193.81Z" fill="#3DADB9"/>
</svg>
