<svg width="18" height="59" viewBox="0 0 18 59" fill="none" xmlns="http://www.w3.org/2000/svg">
<path d="M8.83997 28.03L15.68 34.86L17.69 32.85L8.83997 24L0 32.85L2.01001 34.86L8.83997 28.03Z" fill="#F39A2A"/>
<path d="M8.83997 39.9597L15.68 46.7897L17.69 44.7797L8.83997 35.9297L0 44.7797L2.01001 46.7897L8.83997 39.9597Z" fill="#F39A2A"/>
<path d="M8.83997 52.0298L15.68 58.8698L17.69 56.8498L8.83997 48.0098L0 56.8498L2.01001 58.8698L8.83997 52.0298Z" fill="#F39A2A"/>
<path d="M8.83997 4.03003L15.68 10.86L17.69 8.85001L8.83997 0L0 8.85001L2.01001 10.86L8.83997 4.03003Z" fill="#F39A2A"/>
<path d="M8.83997 15.9597L15.68 22.7897L17.69 20.7797L8.83997 11.9297L0 20.7797L2.01001 22.7897L8.83997 15.9597Z" fill="#F39A2A"/>
</svg>
