<?xml version="1.0" encoding="utf-8"?>
<!-- Generator: Adobe Illustrator 27.4.0, SVG Export Plug-In . SVG Version: 6.00 Build 0)  -->
<svg version="1.1" id="Layer_1" xmlns="http://www.w3.org/2000/svg" xmlns:xlink="http://www.w3.org/1999/xlink" x="0px" y="0px"
	 viewBox="0 0 395.3 424.7" style="enable-background:new 0 0 395.3 424.7;" xml:space="preserve">
<style type="text/css">
	.st0{fill:none;}
	.st1{fill:none;stroke:#F39A2A;stroke-width:4;stroke-miterlimit:10;}
	.st2{fill:url(#);}
	.st3{fill:url(#New_Pattern_3);}
	.st4{fill:#939598;}
	.st5{fill:#F39A2A;}
	.st6{fill:#3CADB9;}
	.st7{fill:#004C5D;}
</style>
<pattern  x="1849.4" y="168.1" width="180" height="360" patternUnits="userSpaceOnUse" id="New_Pattern_3" viewBox="2 -725.2 180 360" style="overflow:visible;">
	<g>
		<rect x="2" y="-725.2" class="st0" width="180" height="360"/>
		<line class="st1" x1="182" y1="-180" x2="182" y2="-550.4"/>
		<line class="st1" x1="164" y1="0" x2="164" y2="-370.4"/>
		<line class="st1" x1="146" y1="-180" x2="146" y2="-550.4"/>
		<line class="st1" x1="128" y1="0" x2="128" y2="-370.4"/>
		<line class="st1" x1="110" y1="-180" x2="110" y2="-550.4"/>
		<line class="st1" x1="92" y1="0" x2="92" y2="-370.4"/>
		<line class="st1" x1="74" y1="-180" x2="74" y2="-550.4"/>
		<line class="st1" x1="56" y1="0" x2="56" y2="-370.4"/>
		<line class="st1" x1="38" y1="-180" x2="38" y2="-550.4"/>
		<line class="st1" x1="20" y1="0" x2="20" y2="-370.4"/>
		<line class="st1" x1="2" y1="-180" x2="2" y2="-550.4"/>
		<line class="st1" x1="182" y1="-540" x2="182" y2="-910.4"/>
		<line class="st1" x1="164" y1="-360" x2="164" y2="-730.4"/>
		<line class="st1" x1="146" y1="-540" x2="146" y2="-910.4"/>
		<line class="st1" x1="128" y1="-360" x2="128" y2="-730.4"/>
		<line class="st1" x1="110" y1="-540" x2="110" y2="-910.4"/>
		<line class="st1" x1="92" y1="-360" x2="92" y2="-730.4"/>
		<line class="st1" x1="74" y1="-540" x2="74" y2="-910.4"/>
		<line class="st1" x1="56" y1="-360" x2="56" y2="-730.4"/>
		<line class="st1" x1="38" y1="-540" x2="38" y2="-910.4"/>
		<line class="st1" x1="20" y1="-360" x2="20" y2="-730.4"/>
		<line class="st1" x1="2" y1="-540" x2="2" y2="-910.4"/>
		<line class="st1" x1="164" y1="-720" x2="164" y2="-1090.4"/>
		<line class="st1" x1="128" y1="-720" x2="128" y2="-1090.4"/>
		<line class="st1" x1="92" y1="-720" x2="92" y2="-1090.4"/>
		<line class="st1" x1="56" y1="-720" x2="56" y2="-1090.4"/>
		<line class="st1" x1="20" y1="-720" x2="20" y2="-1090.4"/>
	</g>
</pattern>
<rect class="st3" width="395.3" height="424.7"/>
</svg>
